<svg xmlns="http://www.w3.org/2000/svg" width="400" height="400">
  <g fill-rule="evenodd">
    <path fill="#0d1514" d="M196.883 33.586c-1.488 1.077-2.472 2.917-2.481 4.636-.001.233-.433 1.007-.96 1.721-.526.713-1.17 2.143-1.43 3.177s-.822 2.447-1.25 3.14c-.427.692-1.135 2.3-1.573 3.572s-1.041 2.595-1.342 2.94c-.3.345-.769 1.348-1.041 2.228s-.9 2.32-1.396 3.2-1.205 2.531-1.577 3.669-.928 2.278-1.234 2.532c-.307.255-.757 1.124-1 1.931-.421 1.399-2.652 6.34-3.823 8.468-.303.55-.848 1.63-1.211 2.4l-1.226 2.6c-.31.66-.818 1.65-1.128 2.2s-1.519 2.931-2.687 5.291-2.785 5.51-3.593 7a120 120 0 0 0-2.552 5.009c-.596 1.265-1.218 2.3-1.382 2.3s-.681.89-1.149 1.977-1.034 2.091-1.258 2.229c-.224.139-.952 1.274-1.618 2.523a82 82 0 0 1-2.491 4.302 256 256 0 0 0-2.081 3.355c-.44.728-1.34 2.064-2 2.969s-1.455 2.14-1.768 2.745-.712 1.1-.889 1.1-.586.51-.908 1.133-1.182 1.876-1.911 2.784c-.728.908-1.954 2.497-2.724 3.531-3.902 5.238-14.202 15.429-20.245 20.031-.635.484-1.965 1.514-2.955 2.289s-2.43 1.755-3.2 2.178-1.743 1.148-2.162 1.611-.912.843-1.096.843c-.32 0-5.154 3.125-6.288 4.064-.3.249-1.29.811-2.2 1.248-.909.438-2.163 1.221-2.785 1.742s-1.355.946-1.629.946c-.275 0-1.385.63-2.468 1.4s-2.17 1.4-2.415 1.4-1.145.475-2.001 1.056c-.855.58-2.095 1.235-2.756 1.455s-1.782.832-2.494 1.36c-.711.528-2.056 1.229-2.988 1.558s-2.06.93-2.507 1.335c-.446.406-1.531.965-2.411 1.242-.88.278-2.06.828-2.623 1.222-.562.394-1.978 1.079-3.145 1.523s-2.417 1.061-2.777 1.372-1.54.861-2.622 1.22c-1.082.36-2.264.923-2.628 1.252-.363.329-1.691.953-2.95 1.386s-2.755 1.155-3.326 1.603c-.57.449-1.358.816-1.75.816s-1.853.602-3.246 1.337c-1.393.736-3.073 1.467-3.733 1.624s-1.851.713-2.646 1.233c-.796.521-2.18 1.144-3.077 1.385s-2.649.975-3.894 1.63-2.545 1.191-2.888 1.191c-.344 0-1.361.43-2.26.956s-2.577 1.236-3.729 1.577c-5.135 1.521-6.365 3.247-5.969 8.375.275 3.576.798 4.491 2.804 4.909.693.144 1.979.674 2.859 1.179.88.504 2.551 1.198 3.714 1.543 1.162.344 2.604.975 3.203 1.402.6.427 1.843.979 2.763 1.227.921.248 2.692.986 3.937 1.641 1.246.655 2.529 1.191 2.852 1.191s1.61.53 2.859 1.179c3.402 1.765 8.083 3.88 9.74 4.401.807.253 1.684.721 1.948 1.039s1.364.841 2.446 1.162c1.081.321 2.465.939 3.075 1.374.61.434 2.064 1.152 3.231 1.596 1.167.443 2.417 1.063 2.777 1.376.36.314 1.598.877 2.75 1.252 1.153.375 2.204.858 2.337 1.073s1.254.838 2.491 1.386 2.535 1.252 2.883 1.568c.349.315 1.43.854 2.402 1.197s2.134.948 2.581 1.344c.446.396 1.644 1.026 2.662 1.401 1.018.374 2.171 1.034 2.562 1.466s.933.786 1.204.786 1.373.605 2.447 1.344 2.34 1.467 2.81 1.616 1.526.805 2.346 1.456c.819.651 1.673 1.184 1.896 1.184s1.143.546 2.045 1.213c2.766 2.048 4.37 3.117 6.039 4.025.88.479 2.14 1.306 2.8 1.837 1.439 1.159 3.754 2.953 6.611 5.125 6.98 5.305 13.82 12.14 18.789 18.775.77 1.028 2.03 2.665 2.8 3.637 2.526 3.191 3.076 3.971 3.798 5.388a18 18 0 0 0 1.686 2.6c1.599 1.972 2.866 3.901 3.71 5.647.438.906 1.064 1.869 1.39 2.14.327.271 1.051 1.42 1.611 2.553.559 1.133 1.64 3.05 2.402 4.26 1.297 2.059 1.907 3.182 5.139 9.453.695 1.349 1.473 2.699 1.728 3 .256.301.779 1.357 1.162 2.347.384.99.95 2.095 1.257 2.455.308.36.925 1.62 1.372 2.8.446 1.18 1.053 2.415 1.348 2.745s.916 1.619 1.382 2.864 1.099 2.473 1.408 2.73c.31.257.87 1.399 1.244 2.537.375 1.138 1.005 2.487 1.402 2.997.396.511.998 1.882 1.337 3.048s.879 2.337 1.2 2.604.791 1.145 1.044 1.952c.459 1.461 2.17 5.293 4.405 9.868.644 1.32 1.354 3.144 1.576 4.053.223.91.675 1.878 1.006 2.153.331.274.888 1.51 1.238 2.746.351 1.237.934 2.698 1.296 3.248s1.031 2.069 1.485 3.376c1.157 3.328 2.168 3.992 6.303 4.144 4.61.169 5.783-.479 6.929-3.826.472-1.378 1.152-2.955 1.513-3.505.36-.55.995-2.093 1.41-3.428.416-1.336 1.024-2.728 1.35-3.095.327-.366.806-1.476 1.064-2.466s.838-2.43 1.288-3.2 1.149-2.353 1.552-3.517c.404-1.164 1.101-2.583 1.549-3.154.449-.57.816-1.339.816-1.709s.72-2.089 1.6-3.82 1.6-3.45 1.6-3.82.369-1.142.821-1.715 1.109-1.903 1.462-2.954.963-2.326 1.355-2.834c.392-.507 1.004-1.798 1.359-2.869.356-1.07.9-2.157 1.21-2.414s.943-1.485 1.408-2.73c.466-1.245 1.087-2.534 1.382-2.864s.853-1.41 1.241-2.4 1.101-2.34 1.584-3 1.094-1.872 1.358-2.694c.263-.822.665-1.61.894-1.752s.858-1.258 1.399-2.482c.542-1.224 1.422-2.744 1.956-3.379s.971-1.384.971-1.664.503-1.211 1.119-2.069c.615-.858 1.354-2.139 1.643-2.847.288-.707.803-1.517 1.144-1.8.342-.282.907-1.151 1.257-1.93.351-.78 1.052-1.95 1.56-2.6 1.445-1.853 2.768-3.842 3.715-5.583.818-1.505 1.743-2.753 4.148-5.6 1.832-2.169 3.25-3.978 4.232-5.4.913-1.322 3.074-3.735 7.182-8.019 2.013-2.1 7.703-7.043 10.568-9.181 1.032-.77 2.672-2.03 3.644-2.8 3.191-2.526 3.971-3.076 5.388-3.798a18 18 0 0 0 2.6-1.686c1.972-1.599 3.901-2.866 5.647-3.71.906-.438 1.869-1.064 2.14-1.39.271-.327 1.42-1.051 2.553-1.611 1.133-.559 3.05-1.64 4.26-2.402s3.304-1.912 4.653-2.556 2.567-1.355 2.706-1.58.925-.624 1.747-.887c.822-.264 2.076-.914 2.788-1.445s1.975-1.207 2.808-1.5c.833-.294 2.211-1.007 3.062-1.585.851-.577 1.857-1.05 2.236-1.05s1.385-.473 2.236-1.05 2.251-1.298 3.112-1.602c.86-.304 2.144-.91 2.852-1.348s2.045-1.063 2.97-1.39 2.177-.945 2.781-1.375 1.627-.906 2.273-1.059 2.076-.773 3.176-1.379 2.72-1.328 3.6-1.605 2.05-.813 2.6-1.192 1.72-.914 2.6-1.189 2.32-.911 3.2-1.413c.88-.503 2.41-1.124 3.4-1.38.99-.257 2.25-.788 2.8-1.179.55-.392 1.72-.931 2.6-1.197 1.367-.415 3.37-1.298 8.583-3.785 1.216-.58 1.526-1.64 1.577-5.383.057-4.16-1.247-5.712-5.977-7.116-1.201-.356-2.635-.969-3.187-1.361-.552-.393-1.812-.928-2.8-1.188-.988-.261-2.516-.891-3.396-1.4s-2.389-1.137-3.354-1.397c-.964-.259-2.404-.897-3.2-1.418-.795-.52-1.986-1.069-2.646-1.22s-2.1-.771-3.2-1.377-2.72-1.326-3.6-1.6-1.883-.744-2.228-1.044-1.683-.909-2.972-1.353-2.642-1.076-3.005-1.405c-.364-.329-1.546-.892-2.628-1.252-1.082-.359-2.262-.908-2.622-1.22s-1.61-.929-2.777-1.372-2.583-1.129-3.145-1.523c-.563-.394-1.743-.944-2.623-1.222-.88-.277-1.965-.836-2.411-1.242-.447-.405-1.612-1.019-2.589-1.364s-2.147-.975-2.6-1.4-1.619-1.054-2.592-1.397c-.972-.343-2.054-.882-2.403-1.198s-1.459-.939-2.467-1.385-2.042-1.063-2.298-1.372-1.046-.796-1.753-1.083c-.708-.286-2.162-1.115-3.232-1.843-1.07-.727-2.121-1.322-2.337-1.322-.215 0-.87-.373-1.455-.829-1.034-.806-3.651-2.547-6.272-4.171a39 39 0 0 1-2.241-1.51c-4.894-3.659-7.808-5.8-8.67-6.369-1.231-.814-7.778-6.841-10.776-9.921-5.244-5.388-8.972-9.806-12.319-14.6-.768-1.1-2.02-2.81-2.784-3.8s-1.774-2.52-2.248-3.4c-.473-.88-1.376-2.191-2.007-2.914-.63-.723-1.146-1.492-1.146-1.71s-.63-1.311-1.4-2.431c-.77-1.119-1.4-2.225-1.4-2.458s-.315-.772-.7-1.197c-.756-.834-2.524-3.858-4.497-7.69-.679-1.32-1.876-3.57-2.658-5-.783-1.43-1.772-3.32-2.198-4.2-.427-.88-.954-1.87-1.171-2.2s-.756-1.41-1.195-2.4-1.066-2.295-1.391-2.9c-1.905-3.55-5.003-10.074-4.997-10.522.004-.233-.443-1.033-.993-1.778s-1-1.647-1-2.004-.72-2.065-1.6-3.796-1.6-3.45-1.6-3.82-.367-1.139-.816-1.709-1.156-1.99-1.572-3.154a39 39 0 0 0-1.784-4.085c-.565-1.082-1.028-2.236-1.028-2.565s-.43-1.333-.956-2.232-1.238-2.586-1.583-3.749c-.344-1.162-.983-2.615-1.42-3.228s-.996-1.912-1.244-2.886c-1.193-4.697-6.996-6.569-11.114-3.586"/>
    <path fill="#fbdb33" d="M0 200v200h400V0H0zM205.446 33.291c1.641 1.266 2.042 1.876 2.551 3.881.248.974.808 2.273 1.244 2.886.437.613 1.076 2.066 1.42 3.228.345 1.163 1.057 2.85 1.583 3.749s.956 1.904.956 2.232.463 1.483 1.028 2.565a39 39 0 0 1 1.784 4.085c.416 1.164 1.124 2.583 1.572 3.154.449.57.816 1.339.816 1.709s.72 2.089 1.6 3.82 1.6 3.439 1.6 3.796.45 1.259 1 2.004.997 1.545.993 1.778c-.006.448 3.092 6.972 4.997 10.522.325.605.951 1.91 1.391 2.9.439.99.977 2.07 1.195 2.4.217.33.744 1.32 1.171 2.2.426.88 1.415 2.77 2.198 4.2s1.979 3.68 2.658 5c1.973 3.832 3.741 6.856 4.497 7.69.385.425.7.964.7 1.197s.63 1.339 1.4 2.458 1.4 2.214 1.4 2.431.516.987 1.146 1.71c.631.723 1.534 2.034 2.007 2.914s1.485 2.41 2.248 3.4 2.016 2.7 2.784 3.8c3.347 4.794 7.075 9.212 12.319 14.6 2.998 3.08 9.545 9.107 10.776 9.921.862.569 3.776 2.71 8.67 6.369a39 39 0 0 0 2.241 1.51c2.621 1.624 5.238 3.365 6.272 4.171.585.456 1.24.829 1.455.829s1.267.595 2.337 1.322 2.524 1.557 3.232 1.843c.707.287 1.496.774 1.753 1.083s1.29.926 2.298 1.372 2.118 1.069 2.467 1.385 1.431.855 2.403 1.198c.973.343 2.139.972 2.592 1.397s1.623 1.055 2.6 1.4 2.142.959 2.589 1.364c.446.406 1.531.965 2.411 1.242.88.278 2.06.828 2.623 1.222.562.394 1.978 1.079 3.145 1.523s2.417 1.061 2.777 1.372 1.54.861 2.622 1.22c1.082.36 2.264.923 2.628 1.252.363.329 1.716.961 3.005 1.405s2.627 1.052 2.972 1.353 1.348.77 2.228 1.044 2.5.994 3.6 1.6 2.54 1.226 3.2 1.377 1.851.7 2.646 1.22c.796.521 2.236 1.159 3.2 1.418.965.26 2.474.889 3.354 1.397.88.509 2.408 1.139 3.396 1.4s2.248.795 2.8 1.188 1.986 1.005 3.187 1.361c4.73 1.404 6.034 2.956 5.977 7.116-.051 3.743-.361 4.803-1.577 5.383-5.213 2.487-7.216 3.37-8.583 3.785-.88.266-2.05.805-2.6 1.197-.55.391-1.81.922-2.8 1.179-.99.256-2.52.877-3.4 1.38s-2.32 1.138-3.2 1.413-2.05.81-2.6 1.189-1.72.915-2.6 1.192-2.5.999-3.6 1.605-2.529 1.227-3.176 1.379c-.646.153-1.669.629-2.273 1.059s-1.855 1.049-2.781 1.375c-.925.327-2.262.952-2.97 1.39s-1.992 1.044-2.852 1.348c-.861.304-2.261 1.024-3.112 1.602-.851.577-1.857 1.05-2.236 1.05s-1.385.473-2.236 1.05-2.229 1.291-3.062 1.585c-.833.293-2.097.969-2.808 1.5-.712.531-1.966 1.181-2.788 1.445-.822.263-1.609.662-1.747.887s-1.357.936-2.706 1.58-3.443 1.794-4.653 2.556-3.127 1.843-4.26 2.402-2.282 1.284-2.553 1.611-1.234.952-2.14 1.39c-1.746.844-3.675 2.111-5.647 3.71a18 18 0 0 1-2.6 1.686c-1.417.722-2.197 1.272-5.388 3.798-.972.77-2.612 2.03-3.644 2.8-2.865 2.138-8.555 7.081-10.568 9.181-4.108 4.284-6.269 6.697-7.182 8.019-.982 1.422-2.4 3.231-4.232 5.4-2.405 2.847-3.33 4.095-4.148 5.6-.947 1.741-2.27 3.73-3.715 5.583-.508.65-1.209 1.82-1.56 2.6-.35.779-.915 1.648-1.257 1.93s-.856 1.093-1.144 1.8c-.289.708-1.028 1.989-1.643 2.847-.616.858-1.119 1.789-1.119 2.069s-.437 1.029-.971 1.664-1.414 2.155-1.956 3.379c-.541 1.224-1.171 2.341-1.399 2.482-.229.142-.631.93-.894 1.752-.264.822-.874 2.034-1.358 2.694-.483.66-1.196 2.01-1.584 3s-.946 2.07-1.241 2.4-.916 1.619-1.382 2.864-1.099 2.473-1.408 2.73c-.31.257-.854 1.344-1.21 2.414-.355 1.071-.967 2.362-1.359 2.869s-1.002 1.783-1.355 2.834-1.011 2.38-1.462 2.954c-.452.573-.821 1.345-.821 1.715s-.72 2.089-1.6 3.82-1.6 3.45-1.6 3.82-.367 1.139-.816 1.709-1.145 1.99-1.549 3.154-1.101 2.747-1.552 3.517c-.45.77-1.03 2.21-1.288 3.2s-.737 2.1-1.064 2.466c-.326.367-.934 1.759-1.35 3.095-.415 1.335-1.05 2.878-1.41 3.428-.361.55-1.041 2.127-1.513 3.505-1.146 3.347-2.319 3.995-6.929 3.826-4.135-.152-5.146-.816-6.303-4.144-.454-1.307-1.123-2.826-1.485-3.376s-.945-2.011-1.296-3.248c-.35-1.236-.907-2.472-1.238-2.746-.331-.275-.783-1.243-1.006-2.153s-.932-2.733-1.576-4.053c-2.235-4.575-3.946-8.407-4.405-9.868-.253-.807-.724-1.686-1.044-1.952-.321-.267-.861-1.438-1.2-2.604s-.941-2.537-1.337-3.048c-.397-.51-1.027-1.859-1.402-2.997-.374-1.138-.934-2.28-1.244-2.537s-.943-1.485-1.408-2.73c-.466-1.245-1.087-2.534-1.382-2.864s-.902-1.565-1.348-2.745-1.064-2.44-1.372-2.8c-.307-.36-.873-1.465-1.257-2.455s-.906-2.046-1.162-2.347-1.033-1.651-1.728-3c-3.232-6.271-3.842-7.394-5.139-9.453-.762-1.21-1.843-3.127-2.402-4.26s-1.284-2.282-1.611-2.553-.952-1.234-1.39-2.14c-.844-1.746-2.111-3.675-3.71-5.647a18 18 0 0 1-1.686-2.6c-.722-1.417-1.272-2.197-3.798-5.388-.77-.972-2.03-2.609-2.8-3.637-4.969-6.635-11.809-13.47-18.789-18.775-2.857-2.172-5.172-3.966-6.611-5.125-.66-.531-1.92-1.358-2.8-1.837-1.669-.908-3.273-1.977-6.039-4.025-.902-.667-1.822-1.213-2.045-1.213s-1.077-.533-1.896-1.184c-.82-.651-1.875-1.307-2.346-1.456-.47-.149-1.735-.876-2.81-1.616-1.074-.739-2.176-1.344-2.447-1.344s-.813-.354-1.204-.786-1.544-1.092-2.562-1.466c-1.018-.375-2.216-1.005-2.662-1.401-.447-.396-1.608-1.001-2.581-1.344s-2.053-.882-2.402-1.197c-.348-.316-1.646-1.021-2.883-1.568s-2.358-1.171-2.491-1.386-1.184-.698-2.337-1.073c-1.152-.375-2.39-.938-2.75-1.252-.36-.313-1.61-.933-2.777-1.376-1.167-.444-2.621-1.162-3.231-1.596s-1.994-1.053-3.075-1.374-2.182-.844-2.446-1.162-1.141-.786-1.948-1.039c-1.657-.521-6.338-2.636-9.74-4.401-1.249-.649-2.536-1.179-2.859-1.179s-1.606-.536-2.852-1.191-3.016-1.393-3.937-1.641-2.163-.8-2.763-1.227c-.599-.427-2.041-1.058-3.203-1.402-1.163-.345-2.834-1.039-3.714-1.543-.88-.505-2.166-1.035-2.859-1.179-2.006-.418-2.529-1.333-2.804-4.909-.396-5.128.834-6.854 5.969-8.375 1.152-.341 2.83-1.051 3.729-1.577s1.916-.956 2.26-.956 1.642-.536 2.888-1.191 2.997-1.388 3.894-1.63c.897-.241 2.281-.864 3.077-1.385.795-.52 1.986-1.075 2.646-1.233.66-.157 2.34-.888 3.733-1.624 1.393-.735 2.854-1.337 3.246-1.337s1.18-.367 1.75-.816 2.067-1.17 3.326-1.603 2.587-1.057 2.95-1.386c.364-.329 1.546-.892 2.628-1.252 1.082-.359 2.262-.908 2.622-1.22s1.61-.929 2.777-1.372 2.583-1.129 3.145-1.523c.563-.394 1.743-.944 2.623-1.222.88-.277 1.965-.836 2.411-1.242.447-.405 1.575-1.006 2.507-1.335s2.277-1.03 2.988-1.558c.712-.528 1.834-1.14 2.494-1.36s1.901-.875 2.756-1.455c.856-.581 1.756-1.056 2.001-1.056s1.332-.63 2.415-1.4 2.193-1.4 2.468-1.4 1.007-.426 1.629-.946c.622-.521 1.876-1.304 2.785-1.742s1.9-.999 2.2-1.248c1.134-.939 5.968-4.064 6.288-4.064.184 0 .677-.379 1.096-.843s1.392-1.188 2.162-1.611 2.21-1.403 3.2-2.178 2.32-1.805 2.955-2.289c6.043-4.602 16.343-14.793 20.245-20.031.77-1.034 1.996-2.623 2.724-3.531s1.588-2.161 1.911-2.784.731-1.133.908-1.133.577-.495.889-1.1 1.108-1.84 1.768-2.745 1.56-2.241 2-2.969 1.376-2.238 2.081-3.355a82 82 0 0 0 2.491-4.302c.666-1.249 1.394-2.384 1.618-2.523.224-.138.79-1.141 1.258-2.229.468-1.087.985-1.977 1.149-1.977s.786-1.035 1.382-2.3a120 120 0 0 1 2.552-5.009c.808-1.49 2.425-4.64 3.593-7s2.378-4.741 2.687-5.291c.31-.55.818-1.54 1.128-2.2l1.226-2.6c.363-.77.908-1.85 1.211-2.4 1.171-2.128 3.402-7.069 3.823-8.468.243-.807.693-1.676 1-1.931.306-.254.862-1.394 1.234-2.532s1.082-2.789 1.577-3.669c.496-.88 1.124-2.32 1.396-3.2s.741-1.883 1.041-2.228c.301-.345.905-1.668 1.342-2.94s1.146-2.88 1.573-3.572.99-2.106 1.25-3.14.904-2.464 1.43-3.177c.527-.714.959-1.488.96-1.721.025-4.723 7.176-7.916 11.044-4.931"/>
  </g>
</svg>
